<svg width="48" height="48" fill="none" xmlns="http://www.w3.org/2000/svg"><path d="M41.577 10.82a21.823 21.823 0 00-2.439-2.767A21.895 21.895 0 0023.984 2C11.854 2 2 11.86 2 24c0 12.139 9.854 22 21.984 22 4.065 0 8-1.106 11.447-3.222.39-.228.52-.748.26-1.106a.681.681 0 00-.488-.358.696.696 0 00-.618.097 20.314 20.314 0 01-10.601 2.994c-11.22 0-20.358-9.145-20.358-20.373 0-11.227 9.138-20.372 20.358-20.372a20.234 20.234 0 0114.048 5.63 24.318 24.318 0 012.277 2.538 20.17 20.17 0 014.065 12.204c0 .456.358.814.813.814a.805.805 0 00.813-.814c-.032-4.849-1.561-9.405-4.423-13.213z" fill="#fff"/><path d="M36 24.073c0-6.627-5.373-12-12-12s-12 5.373-12 12c0 5.99 4.388 10.954 10.125 11.854v-8.385h-3.047v-3.47h3.047V21.43c0-3.007 1.792-4.669 4.533-4.669 1.312 0 2.686.235 2.686.235v2.953H27.83c-1.491 0-1.956.925-1.956 1.874v2.25h3.328l-.532 3.47h-2.796v8.385C31.612 35.028 36 30.062 36 24.073z" fill="#fff"/></svg>