<svg width="48" height="48" fill="none" xmlns="http://www.w3.org/2000/svg"><path d="M41.577 10.82a21.823 21.823 0 00-2.439-2.767A21.895 21.895 0 0023.984 2C11.854 2 2 11.86 2 24c0 12.139 9.854 22 21.984 22 4.065 0 8-1.106 11.447-3.222.39-.228.52-.748.26-1.106a.681.681 0 00-.488-.358.696.696 0 00-.618.097 20.314 20.314 0 01-10.601 2.994c-11.22 0-20.358-9.145-20.358-20.373 0-11.227 9.138-20.372 20.358-20.372a20.234 20.234 0 0114.048 5.63 24.318 24.318 0 012.277 2.538 20.17 20.17 0 014.065 12.204c0 .456.358.814.813.814a.805.805 0 00.813-.814c-.032-4.849-1.561-9.405-4.423-13.213z" fill="#fff"/><path d="M35.953 16.57a9.98 9.98 0 01-2.825.775 4.958 4.958 0 002.163-2.723c-.951.555-2.005.96-3.127 1.184a4.92 4.92 0 00-8.384 4.482c-4.09-.193-7.713-2.158-10.14-5.126a4.822 4.822 0 00-.666 2.475c0 1.71.87 3.213 2.188 4.096a4.905 4.905 0 01-2.228-.616v.06a4.923 4.923 0 003.946 4.827 4.996 4.996 0 01-2.212.085 4.936 4.936 0 004.604 3.417 9.867 9.867 0 01-6.102 2.105c-.39 0-.779-.023-1.17-.067a13.995 13.995 0 007.557 2.21c9.053 0 13.998-7.497 13.998-13.986 0-.21 0-.42-.015-.63A9.937 9.937 0 0036 16.59l-.047-.02z" fill="#fff"/></svg>