<svg width="48" height="48" fill="none" xmlns="http://www.w3.org/2000/svg"><path d="M41.577 10.82a21.823 21.823 0 00-2.439-2.767A21.895 21.895 0 0023.984 2C11.854 2 2 11.86 2 24c0 12.139 9.854 22 21.984 22 4.065 0 8-1.106 11.447-3.222.39-.228.52-.748.26-1.106a.681.681 0 00-.488-.358.696.696 0 00-.618.097 20.314 20.314 0 01-10.601 2.994c-11.22 0-20.358-9.145-20.358-20.373 0-11.227 9.138-20.372 20.358-20.372a20.234 20.234 0 0114.048 5.63 24.318 24.318 0 012.277 2.538 20.17 20.17 0 014.065 12.204c0 .456.358.814.813.814a.805.805 0 00.813-.814c-.032-4.849-1.561-9.405-4.423-13.213z" fill="#fff"/><path d="M35.498 18.155a3.036 3.036 0 00-.775-1.359 3.013 3.013 0 00-1.347-.788C31.505 15.5 24 15.5 24 15.5s-7.505 0-9.377.508a3.017 3.017 0 00-2.121 2.148C12 20.048 12 24 12 24s0 3.95.502 5.845c.136.513.403.982.775 1.359.373.377.837.649 1.347.788C16.495 32.5 24 32.5 24 32.5s7.505 0 9.377-.508a3.017 3.017 0 002.122-2.148C36 27.952 36 24 36 24s0-3.95-.502-5.845zm-13.953 9.432v-7.174L27.818 24l-6.273 3.587z" fill="#fff"/></svg>