<svg width="82" height="32" fill="none" xmlns="http://www.w3.org/2000/svg"><g clip-path="url(#clip0_142_3154)" fill="#C00"><path d="M82 10.708c0-2.33-4.143-2.583-5.923-2.583-3.937 0-8.108 1.244-11.444 3.407-3.335 2.164-5.263 4.867-5.263 7.393 0 1.07.53 4.56 7.343 4.56 4.363 0 8.39-1.255 13.056-4.068a.378.378 0 00.133-.138.405.405 0 00-.12-.527l-.793-.526a.355.355 0 00-.36-.019c-3.628 1.908-6.803 2.835-9.703 2.835-2.601 0-4.282-.782-4.282-1.992a5.613 5.613 0 01.34-2.006C69.276 16.814 82 15.694 82 10.708zm-7.228-.818c1.189 0 1.953.37 1.953.94 0 2.673-5.455 4.315-11.053 4.621 1.3-2.003 5.18-5.561 9.1-5.561zm-16.539 8.865l-.794-.526a.353.353 0 00-.358-.018c-3.627 1.907-6.801 2.834-9.705 2.834-2.6 0-4.282-.781-4.282-1.992a5.595 5.595 0 01.34-2.005c4.294-.234 17.018-1.353 17.018-6.34 0-2.33-4.144-2.583-5.926-2.583-3.937 0-8.108 1.244-11.443 3.407-3.334 2.164-5.264 4.869-5.264 7.397 0 1.07.529 4.56 7.343 4.56 4.363 0 8.39-1.256 13.057-4.068a.378.378 0 00.134-.139.404.404 0 00-.12-.527zM53.214 9.89c1.189 0 1.959.37 1.959.94 0 2.673-5.454 4.314-11.055 4.621 1.298-2.003 5.171-5.561 9.096-5.561zm-14.096 2.72c1.942 0 2.748-1.742 2.748-2.674 0-.658-.368-1.441-2.122-1.441-2.236 0-5.349 1.917-9.267 5.704l1.197-2.351c.549-1.1.612-1.548.612-1.793 0-.717-.467-1.564-2.695-1.564-2.915 0-7.331 3.048-8.786 4.224a.407.407 0 00-.097.493c.027.054.067.1.115.134l.738.525a.354.354 0 00.404 0c.693-.47 3.07-2.008 4.563-2.008.543 0 .71.304.71.415 0 .328-.325 1.097-.634 1.635l-4.473 8.517a.916.916 0 00-.165.479c0 .888 2.16.943 2.181.943 1.69 0 2.175-.09 2.364-.448l1.019-1.967c1.99-3.35 5.865-8.958 9.494-8.958.326 0 .662.03 1.018.06.357.032.72.075 1.076.075zm-18.471-2.283a.38.38 0 00-.135-.14.355.355 0 00-.183-.052h-5.65l1.73-3.76c.732-1.654 1.642-3.711 4.942-3.711.638 0 1.263.165 1.868.326.589.157 1.146.305 1.704.305 1.214 0 1.953-1.23 1.953-1.9C26.876.508 25.895 0 24.183 0c-2.269 0-4.702.8-6.22 1.545-5.372 2.593-6.902 5.379-8.575 8.59H4.621a.353.353 0 00-.191.057.38.38 0 00-.136.155l-.623 1.288a.407.407 0 00.014.38.378.378 0 00.134.135c.054.033.116.05.18.05H8.52L.032 31.259a.408.408 0 00.067.433l.17.189A.365.365 0 00.534 32a.404.404 0 00.056-.005l3.462-.566a.355.355 0 00.157-.068.381.381 0 00.112-.137L13.687 12.2h5.957c.065 0 .13-.018.186-.053a.378.378 0 00.135-.146l.679-1.288a.405.405 0 00.003-.386z"/></g><defs><clipPath id="clip0_142_3154"><path fill="#fff" d="M0 0h82v32H0z"/></clipPath></defs></svg>