<svg width="86" height="32" fill="none" xmlns="http://www.w3.org/2000/svg"><g clip-path="url(#clip0_8_1375)" fill="#fff"><path d="M86 10.708c0-2.33-4.345-2.583-6.212-2.583-4.13 0-8.504 1.244-12.002 3.407-3.498 2.163-5.52 4.866-5.52 7.393 0 1.07.556 4.56 7.702 4.56 4.575 0 8.798-1.255 13.692-4.068a.387.387 0 00.148-.52.387.387 0 00-.134-.145l-.832-.526a.384.384 0 00-.377-.02c-3.806 1.909-7.135 2.836-10.177 2.836-2.728 0-4.491-.782-4.491-1.993a5.38 5.38 0 01.356-2.005C72.656 16.814 86 15.694 86 10.708zm-7.58-.818c1.246 0 2.047.369 2.047.94 0 2.673-5.72 4.314-11.592 4.62 1.364-2.002 5.433-5.56 9.545-5.56zm-17.347 8.865l-.832-.526a.383.383 0 00-.376-.019c-3.804 1.908-7.133 2.835-10.178 2.835-2.728 0-4.49-.782-4.49-1.992a5.36 5.36 0 01.356-2.005c4.503-.234 17.848-1.353 17.848-6.34 0-2.33-4.346-2.583-6.215-2.583-4.13 0-8.504 1.244-12.001 3.407-3.497 2.163-5.521 4.868-5.521 7.396 0 1.07.555 4.56 7.701 4.56 4.576 0 8.8-1.255 13.694-4.067a.387.387 0 00.195-.33.39.39 0 00-.18-.336zM55.81 9.89c1.247 0 2.054.369 2.054.94 0 2.673-5.72 4.314-11.594 4.62 1.362-2.002 5.423-5.56 9.54-5.56zm-14.784 2.72c2.037 0 2.882-1.742 2.882-2.674 0-.658-.386-1.441-2.226-1.441-2.344 0-5.609 1.917-9.718 5.703l1.256-2.35c.575-1.1.64-1.548.64-1.793 0-.718-.489-1.564-2.825-1.564-3.058 0-7.69 3.048-9.215 4.224a.387.387 0 00-.102.493c.029.054.07.1.12.134l.775.525a.383.383 0 00.424 0c.726-.471 3.22-2.009 4.785-2.009.57 0 .746.305.746.416 0 .328-.342 1.097-.666 1.635l-4.692 8.517a.89.89 0 00-.172.479c0 .888 2.265.943 2.287.943 1.772 0 2.281-.09 2.48-.448l1.068-1.967c2.088-3.35 6.151-8.959 9.957-8.959.342 0 .694.03 1.068.061.374.032.755.075 1.128.075zm-19.371-2.283a.389.389 0 00-.333-.192h-5.925l1.814-3.76c.767-1.654 1.721-3.711 5.183-3.711.669 0 1.324.165 1.959.326.618.157 1.202.305 1.787.305 1.273 0 2.048-1.23 2.048-1.9C28.188.508 27.16 0 25.364 0c-2.38 0-4.931.8-6.524 1.545-5.633 2.593-7.238 5.379-8.993 8.59H4.848a.383.383 0 00-.343.212l-.653 1.288a.39.39 0 00.154.515.38.38 0 00.188.05h4.744L.035 31.259a.39.39 0 00.07.433l.178.189a.383.383 0 00.337.114l3.63-.566a.381.381 0 00.283-.204L14.356 12.2h6.248a.382.382 0 00.336-.199l.712-1.288a.391.391 0 00.003-.386z"/></g><defs><clipPath id="clip0_8_1375"><path fill="#fff" d="M0 0h86v32H0z"/></clipPath></defs></svg>