<svg width="312" height="32" fill="none" xmlns="http://www.w3.org/2000/svg"><g clip-path="url(#clip0_7_1389)" fill="#C00"><path d="M88 10.708c0-2.33-4.446-2.583-6.356-2.583-4.226 0-8.702 1.244-12.281 3.407-3.58 2.163-5.649 4.866-5.649 7.393 0 1.07.569 4.56 7.88 4.56 4.683 0 9.004-1.255 14.012-4.068a.391.391 0 00.198-.328.384.384 0 00-.184-.337l-.851-.526a.401.401 0 00-.386-.02c-3.894 1.909-7.301 2.836-10.414 2.836-2.791 0-4.595-.782-4.595-1.992a5.27 5.27 0 01.364-2.006C74.346 16.814 88 15.694 88 10.708zm-7.757-.818c1.276 0 2.096.369 2.096.94 0 2.673-5.854 4.314-11.862 4.62 1.396-2.002 5.56-5.56 9.766-5.56zm-17.75 8.865l-.851-.526a.399.399 0 00-.385-.019c-3.892 1.908-7.298 2.835-10.414 2.835-2.791 0-4.595-.782-4.595-1.992a5.25 5.25 0 01.364-2.005c4.608-.234 18.264-1.353 18.264-6.34 0-2.33-4.448-2.583-6.36-2.583-4.226 0-8.702 1.244-12.28 3.407-3.579 2.163-5.65 4.868-5.65 7.396 0 1.07.568 4.56 7.881 4.56 4.682 0 9.004-1.255 14.012-4.067a.392.392 0 00.2-.33.382.382 0 00-.186-.336zM57.108 9.89c1.276 0 2.102.369 2.102.94 0 2.673-5.853 4.314-11.864 4.62 1.393-2.002 5.55-5.56 9.762-5.56zM41.98 12.61c2.085 0 2.95-1.742 2.95-2.674 0-.658-.396-1.441-2.278-1.441-2.399 0-5.74 1.917-9.944 5.703l1.284-2.35c.589-1.1.656-1.548.656-1.793 0-.718-.5-1.564-2.892-1.564-3.128 0-7.867 3.048-9.429 4.224a.389.389 0 00-.153.318.382.382 0 00.172.31l.793.524a.4.4 0 00.434 0c.743-.471 3.294-2.009 4.896-2.009.583 0 .763.305.763.416 0 .328-.35 1.097-.681 1.635l-4.8 8.517a.877.877 0 00-.178.479c0 .888 2.318.943 2.341.943 1.813 0 2.334-.09 2.537-.448l1.093-1.967c2.137-3.35 6.295-8.959 10.189-8.959.35 0 .71.03 1.093.061.383.032.773.075 1.154.075zm-19.821-2.283a.393.393 0 00-.341-.192h-6.063l1.857-3.76c.784-1.654 1.76-3.711 5.303-3.711.684 0 1.355.165 2.004.326.632.157 1.23.305 1.83.305 1.301 0 2.095-1.23 2.095-1.9C28.844.508 27.79 0 25.954 0c-2.435 0-5.046.8-6.676 1.545-5.764 2.593-7.406 5.379-9.202 8.59H4.961a.399.399 0 00-.351.212l-.669 1.288a.383.383 0 00.158.515.4.4 0 00.193.05h4.854L.036 31.259a.383.383 0 00.072.433l.182.189a.392.392 0 00.344.114l3.715-.566a.395.395 0 00.29-.204L14.688 12.2h6.394a.398.398 0 00.344-.199l.729-1.288a.385.385 0 00.003-.386z"/></g><path d="M271.929 9.277h9.451v2.311h-6.904v3.276h6.7v2.235h-6.7v3.326h6.904v2.311h-9.451V9.277zm35.537 13.662c2.904 0 4.534-1.371 4.534-3.276 0-1.346-.968-2.361-2.98-2.793l-2.14-.432c-1.249-.228-1.631-.457-1.631-.914 0-.584.586-.965 1.707-.965 1.197 0 2.089.33 2.318 1.422h2.497c-.128-2.082-1.631-3.453-4.662-3.453-2.624 0-4.458 1.066-4.458 3.174 0 1.447 1.019 2.387 3.184 2.844l2.395.559c.942.177 1.197.431 1.197.838 0 .61-.713 1.015-1.86 1.015-1.452 0-2.267-.33-2.598-1.422h-2.522c.331 2.032 1.885 3.403 5.019 3.403zm-5.758-.254h-2.7c-1.707 0-2.649-1.066-2.649-2.387v-5.282h-1.911v-2.234h1.911V9.963h2.522v2.819h2.802v2.234h-2.802v4.622c0 .533.356.787.942.787h1.885v2.26zm-10.877-9.903v.888a4.993 4.993 0 00-3.185-1.142c-2.878-.051-5.273 2.209-5.324 5.104a5.205 5.205 0 005.121 5.307h.229a4.988 4.988 0 003.184-1.143v.89h2.522v-9.904h-2.547zm-2.955 7.999a3.04 3.04 0 01-3.083-2.997c-.025-1.676 1.325-3.047 3.006-3.072a3.04 3.04 0 013.083 2.996v.025c.025 1.651-1.325 2.997-2.981 3.022l-.025.026z" fill="#fff"/><path d="M260.924 17.81a4.844 4.844 0 00-4.636-5.08h-.255c-2.777.026-5.044 2.286-5.018 5.054v.026a5.074 5.074 0 004.993 5.13h.203a5.148 5.148 0 004.229-2.083l-1.401-1.016a3.39 3.39 0 01-2.828 1.422 3.262 3.262 0 01-3.235-2.793h7.948v-.66zm-7.897-.89c.28-1.447 1.529-2.488 2.981-2.488 1.452.026 2.7 1.067 2.955 2.489h-5.936zm-17.323.636c.128 1.828-1.248 3.402-3.082 3.555h-.229c-1.885 0-3.286-1.397-3.286-3.555V9.277h-2.038v8.38c-.153 2.743 1.936 5.079 4.687 5.257h.407a4.959 4.959 0 003.567-1.498v1.27h1.987V9.276h-2.013v8.279zm9.426-4.825h-.204a4.927 4.927 0 00-3.464 1.447v-4.9h-1.936V22.71h1.91v-1.244c.917.94 2.191 1.448 3.49 1.473a5.1 5.1 0 005.273-4.952c.102-2.818-2.139-5.18-4.967-5.256h-.102zm3.031 5.104c0 1.854-1.503 3.352-3.362 3.377h-.026c-1.885 0-3.413-1.498-3.413-3.377a3.387 3.387 0 013.388-3.403c1.885 0 3.413 1.498 3.413 3.378v.025zm18.317-4.977a2.576 2.576 0 00-2.293 1.27v-1.194h-1.911v9.777h1.936v-5.562c0-1.523.892-2.488 2.166-2.488h.815v-1.803h-.713zM153.371 22.71h3.362V9.277h-3.388v13.434h.026zM144.48 9.277h-3.388v13.434h9.808v-2.82h-6.445V9.278h.025zm25.22 10.31c-.662.305-1.376.432-2.089.432-2.242.127-4.178-1.575-4.305-3.81v-.228c0-2.361 1.758-3.86 4.28-3.86 1.401-.05 2.776.254 4.05.838l.841-2.92a11.113 11.113 0 00-4.968-.94c-4.585 0-7.693 3.048-7.693 6.882 0 3.86 3.108 6.907 7.617 6.907 3.031 0 4.738-1.066 5.4-1.65v-5.46l-3.108.406v3.403h-.025zm39.893-7.618l.662 2.844 2.981-1.574v9.471h3.235V9.277h-1.961l-4.917 2.692zm-24.277 5.079a3.049 3.049 0 01-3.133 2.895 3.04 3.04 0 01-2.905-2.895v-7.77h-3.388v7.516c0 3.987 2.548 6.069 6.369 6.069 3.872 0 6.42-2.082 6.42-6.07V9.278h-3.389l.026 7.77zm10.419.127h5.273v-2.641h-5.273v-2.438h6.47V9.277h-9.858v13.434h10.037v-2.82h-6.649v-2.716zm-70.183-1.195c0 1.6-1.299 2.895-2.904 2.895a2.898 2.898 0 01-2.904-2.894c0-1.6 1.299-2.895 2.904-2.895a2.898 2.898 0 012.904 2.895z" fill="#fff"/><path d="M128.584 8.795l-2.216 3.555a34.957 34.957 0 012.598 4.291 38.893 38.893 0 01-3.362 5.46 42.191 42.191 0 01-5.376.05l-2.241 3.581c3.235.381 6.496.356 9.705-.076a42.021 42.021 0 005.605-8.964c-1.223-2.844-2.828-5.485-4.713-7.897zm-12.253 6.525a34.193 34.193 0 013.362-5.459 42.188 42.188 0 015.375-.05l2.242-3.581a44.29 44.29 0 00-9.706.076 41.604 41.604 0 00-5.604 8.99 37.767 37.767 0 004.713 7.846l2.216-3.555a42.309 42.309 0 01-2.598-4.266z" fill="#fff"/><defs><clipPath id="clip0_7_1389"><path fill="#fff" d="M0 0h88v32H0z"/></clipPath></defs></svg>